<svg xmlns="http://www.w3.org/2000/svg" width="143" height="27" viewBox="0 0 143 27" fill="none"><path d="M25.916 10.9628L22.6402 14.2947C22.5648 16.4559 21.7825 18.5241 20.4618 20.0594C20.4328 20.3563 20.2079 20.5531 19.9788 20.736C19.636 21.0094 19.2808 21.2629 18.9246 21.5187C18.8882 21.5449 18.8526 21.5718 18.8302 21.5889C18.777 21.6324 18.7234 21.6756 18.6724 21.7218C18.6178 21.7705 18.5649 21.8208 18.5137 21.8731C18.433 21.9558 18.3578 22.0466 18.4694 21.9008C18.1768 22.2828 17.7936 22.5197 17.3694 22.5411C17.2215 23.0286 16.8226 23.4308 16.1601 23.4358C13.0566 23.4591 9.54904 24.2798 6.88234 22.2736C4.65152 20.5954 3.85975 17.9467 3.49515 15.3046C3.07208 12.2393 3.55894 9.26962 6.11739 7.28239C8.24481 5.62962 11.8516 4.23873 14.5538 4.49293C14.9919 4.53426 15.3144 4.74377 15.5263 5.02656C18.2172 5.6856 20.448 7.50752 21.6409 9.93058C21.8902 9.52093 22.1444 9.1144 22.4829 8.76842C22.8021 8.44215 23.359 8.12067 23.5124 7.84846C23.7277 7.4662 24.0437 7.27999 24.3755 7.23771C22.1091 3.55254 18.0258 1.09248 13.3639 1.09248C6.23892 1.09248 0.462891 6.83623 0.462891 13.9214C0.462891 21.0065 6.23892 26.75 13.3639 26.75C20.4889 26.75 26.2646 21.0065 26.2646 13.9214C26.2646 12.9026 26.1417 11.913 25.916 10.9628Z" fill="white"></path><path d="M11.8335 3.96791C15.7749 3.96791 19.2445 5.97627 21.2644 9.01993L24.1872 7.20137C21.8293 3.45398 17.7702 1.21665 13.3298 1.21665C6.27175 1.21665 0.529785 6.92651 0.529785 13.9451C0.529785 14.1995 0.538242 14.4518 0.55298 14.7026C0.813199 8.73041 5.76363 3.96791 11.8335 3.96791Z" fill="white"></path><path d="M22.4966 15.7502C21.5096 20.9289 16.9189 24.8461 11.4038 24.8461C7.41673 24.8461 3.91332 22.7976 1.90479 19.7059C4.01722 23.8358 8.34501 26.6733 13.3298 26.6733C19.4588 26.6733 24.7453 22.352 25.8995 16.3977L22.4966 15.7502Z" fill="white"></path><path d="M11.4041 24.8462C16.919 24.8462 21.5099 20.9289 22.4969 15.7503L22.4659 15.7445C21.6275 20.0702 17.7852 23.21 13.33 23.21C8.20007 23.21 4.02643 19.0758 4.02643 13.9942C4.02643 8.91263 8.20007 4.77841 13.33 4.77841C16.5578 4.77841 19.5086 6.39923 21.2233 9.11373L21.2646 9.08802C19.2447 6.05613 15.7752 4.05546 11.8337 4.05546C5.76388 4.05546 0.813441 8.7997 0.553223 14.7489C0.658808 16.5232 1.13503 18.2005 1.90505 19.706C3.91359 22.7977 7.417 24.8462 11.4041 24.8462Z" fill="#2FC4F1"></path><path d="M20.448 12.9351L32.0418 1.20422C30.7603 -0.070137 28.6815 -0.067255 27.4033 1.21095L13.3481 15.394L15.6708 17.7036L20.448 12.9351Z" fill="#14CA6E"></path><path d="M5.50537 12.2144L11.0323 17.7104L13.3482 15.3943L10.1504 12.2144C8.86768 10.9389 6.7881 10.9389 5.50537 12.2144Z" fill="white"></path><path d="M17.3707 16.0115C16.4321 16.9458 14.9092 16.9461 13.9703 16.0119L13.3379 15.3827L13.3471 15.3949L11.0322 17.7099L13.3546 20.0195L15.6103 17.7637L17.3707 16.0115Z" fill="#2FC4F1"></path><path d="M99.8496 17.8648H103.337V21.3325H99.8496V17.8648Z" fill="#2FC4F1"></path><path d="M142.537 21.459V18.4004C142.05 18.3975 140.573 18.3716 140.267 18.3235C139.925 18.2702 139.665 18.1551 139.491 17.9816C139.317 17.8089 139.201 17.5581 139.147 17.2361C139.095 16.9288 139.069 16.5235 139.069 16.0317V11.668H142.537V8.85763H139.069V3.99757H135.765V16.0569C135.765 17.0742 135.854 17.9396 136.029 18.6292C136.203 19.3108 136.499 19.8675 136.91 20.2839C137.32 20.7007 137.863 21.0034 138.523 21.1839C139.19 21.3665 140.038 21.459 141.044 21.459H142.537Z" fill="white"></path><path d="M86.9392 10.0858C86.0237 9.1026 84.7303 8.60406 83.0951 8.60406C82.3065 8.60406 81.577 8.76575 80.9268 9.08434C80.2769 9.40317 79.7243 9.85079 79.2848 10.4154L79.1051 10.6463L79.1036 10.4385V8.8573H75.8442V21.332H79.129V14.6861L79.1319 15.1472C79.1319 15.071 79.1331 14.996 79.1353 14.9225C79.1691 13.757 79.4617 12.8872 80.007 12.3354C80.5881 11.7472 81.2939 11.4488 82.1045 11.4488C83.0579 11.4488 83.7856 11.7393 84.2676 12.3118C84.7398 12.8735 84.9811 13.6782 84.986 14.7032L84.9862 14.7029V14.7286V14.7344V21.332H88.3217V14.2503C88.3217 12.4723 87.8566 11.0711 86.9392 10.0858Z" fill="white"></path><path d="M116.821 10.0858C115.906 9.1026 114.613 8.60406 112.977 8.60406C112.189 8.60406 111.459 8.76575 110.809 9.08434C110.159 9.40317 109.607 9.85079 109.167 10.4154L108.987 10.6463L108.986 10.4385V8.8573H105.727V21.332H109.011V14.6861L109.014 15.1472C109.014 15.071 109.015 14.996 109.018 14.9225C109.051 13.757 109.344 12.8872 109.889 12.3354C110.47 11.7472 111.176 11.4488 111.987 11.4488C112.94 11.4488 113.668 11.7393 114.15 12.3118C114.622 12.8735 114.863 13.6782 114.868 14.7032L114.869 14.7029V14.7286C114.869 14.7305 114.869 14.7325 114.869 14.7344V21.332H118.204V14.2503C118.204 12.4723 117.739 11.0711 116.821 10.0858Z" fill="white"></path><path d="M85.0356 8.8573V21.332H88.3204V14.6861L88.3233 15.1472C88.3233 15.071 88.3245 14.9963 88.3267 14.9225C88.3605 13.757 88.6533 12.8872 89.1984 12.3356C89.7795 11.7472 90.4852 11.4488 91.2959 11.4488C92.2493 11.4488 92.9772 11.7393 93.459 12.3118C93.9311 12.8735 94.1723 13.6782 94.1773 14.7032H94.1776V14.7286V14.7344V21.332H97.5131V14.2503C97.5131 12.4723 97.048 11.0711 96.1305 10.0858C95.2151 9.10261 93.9217 8.6043 92.2865 8.6043C91.4981 8.6043 90.7684 8.76576 90.1182 9.08435C89.4683 9.40318 88.9157 9.85103 88.4762 10.4154L87.4018 11.6677" fill="white"></path><path d="M36.1294 13.9251C36.1284 13.0119 37.1833 11.4175 39.4564 11.4149C41.7293 11.4149 42.7861 13.008 42.7861 13.9213L36.1294 13.9251ZM45.9578 15.0697C45.9578 14.1755 45.7974 13.3269 45.4808 12.5472C45.1643 11.7688 44.7166 11.0761 44.1503 10.4877C43.5847 9.90071 42.8968 9.43508 42.1062 9.10376C41.3149 8.77244 40.4321 8.60473 39.4816 8.60473C38.5823 8.60473 37.7253 8.77652 36.9342 9.11601C36.1424 9.45575 35.4451 9.9221 34.8624 10.5016C34.2791 11.0818 33.8104 11.7748 33.469 12.5619C33.1278 13.3478 32.9546 14.2002 32.9546 15.0952C32.9546 15.9907 33.1194 16.8434 33.4441 17.6298C33.7693 18.4173 34.2252 19.11 34.7993 19.6888C35.3739 20.2683 36.0789 20.7344 36.8951 21.0737C37.7117 21.4132 38.6163 21.5854 39.5835 21.5854C42.3792 21.5854 44.1232 20.3205 45.1643 19.1374L42.7861 17.3359C42.2848 17.9274 41.0948 18.7297 39.6089 18.7297C38.6765 18.7297 37.9091 18.5151 37.3276 18.092C36.7453 17.6689 36.344 17.0863 36.1354 16.3604L36.1021 16.2446H45.9578V15.0697Z" fill="white"></path><path d="M123.546 13.9251C123.545 13.0119 124.6 11.4175 126.873 11.4149C129.146 11.4149 130.203 13.008 130.203 13.9213L123.546 13.9251ZM133.375 15.0697C133.375 14.1755 133.214 13.3269 132.898 12.5472C132.581 11.7688 132.134 11.0761 131.567 10.4877C131.002 9.90071 130.314 9.43508 129.523 9.10376C128.732 8.77244 127.849 8.60473 126.899 8.60473C125.999 8.60473 125.142 8.77652 124.351 9.11601C123.559 9.45575 122.862 9.9221 122.279 10.5016C121.696 11.0818 121.227 11.7748 120.886 12.5619C120.545 13.3478 120.372 14.2002 120.372 15.0952C120.372 15.9907 120.536 16.8434 120.861 17.6298C121.186 18.4173 121.642 19.11 122.216 19.6888C122.791 20.2683 123.496 20.7344 124.312 21.0737C125.129 21.4132 126.033 21.5854 127.001 21.5854C129.796 21.5854 131.54 20.3205 132.581 19.1374L130.203 17.3359C129.702 17.9274 128.512 18.7297 127.026 18.7297C126.093 18.7297 125.326 18.5151 124.745 18.092C124.162 17.6689 123.761 17.0863 123.552 16.3604L123.519 16.2446H133.375V15.0697Z" fill="white"></path><path d="M66.351 18.6859C64.3543 18.6859 62.736 17.0828 62.736 15.1052C62.736 13.1276 64.3543 11.5246 66.351 11.5246C68.3477 11.5246 69.9663 13.1276 69.9663 15.1052C69.9663 17.0828 68.3477 18.6859 66.351 18.6859ZM66.351 8.55489C62.6985 8.55489 59.7378 11.4876 59.7378 15.1052C59.7378 18.7229 62.6985 21.6553 66.351 21.6553C70.0035 21.6553 72.9645 18.7229 72.9645 15.1052C72.9645 11.4876 70.0035 8.55489 66.351 8.55489Z" fill="white"></path><path d="M73.4895 21.3804H70.0591V8.82924H73.4895V21.3804Z" fill="white"></path><path d="M60.7094 21.3809H56.3606L45.647 8.82972H49.9958L60.7094 21.3809Z" fill="white"></path><path d="M60.0976 8.82973H55.7488L45.0352 21.3809H49.384L60.0976 8.82973Z" fill="white"></path></svg>