<svg width="50" height="50" viewBox="0 0 50 50" fill="none" xmlns="http://www.w3.org/2000/svg">
    <g clip-path="url(#clip0)">
        <path fill-rule="evenodd" clip-rule="evenodd" d="M12.6261 7.97139C14.0157 8.77412 14.9486 10.2745 14.9486 11.9908C14.9486 14.5569 12.8697 16.6331 10.3063 16.6331C9.45918 16.6331 8.66748 16.4089 7.98369 16.013C7.30273 16.4089 6.5082 16.6331 5.66387 16.6331C3.10049 16.6331 1.02148 14.5569 1.02148 11.9908C1.02148 10.2745 1.95439 8.77422 3.34131 7.97139C3.34131 5.40801 5.42021 3.3291 7.98369 3.3291C10.5498 3.3291 12.6261 5.40801 12.6261 7.97139Z" fill="#95D6A4"/>
        <path fill-rule="evenodd" clip-rule="evenodd" d="M46.6583 7.97139C48.0451 8.77412 48.9808 10.2745 48.9808 11.9908C48.9808 14.5569 46.9019 16.6331 44.3384 16.6331C43.4913 16.6331 42.6996 16.4089 42.0159 16.013C41.3321 16.4089 40.5404 16.6331 39.6961 16.6331C37.1299 16.6331 35.0537 14.5569 35.0537 11.9908C35.0537 10.2745 35.9866 8.77422 37.3735 7.97139C37.3735 5.40801 39.4525 3.3291 42.0159 3.3291C44.5792 3.3291 46.6583 5.40801 46.6583 7.97139Z" fill="#95D6A4"/>
        <path fill-rule="evenodd" clip-rule="evenodd" d="M29.6426 7.97139C31.0294 8.77412 31.9651 10.2745 31.9651 11.9908C31.9651 14.5569 29.8861 16.6331 27.3228 16.6331C26.4756 16.6331 25.684 16.4089 25.0002 16.013C24.3192 16.4089 23.5248 16.6331 22.6805 16.6331C20.1171 16.6331 18.0381 14.5569 18.0381 11.9908C18.0381 10.2745 18.971 8.77422 20.3578 7.97139C20.3578 5.40801 22.4368 3.3291 25.0002 3.3291C27.5636 3.3291 29.6426 5.40801 29.6426 7.97139Z" fill="#95D6A4"/>
        <path fill-rule="evenodd" clip-rule="evenodd" d="M49.2524 23.2823C49.2495 23.3543 49.2468 23.4485 49.244 23.5204C48.6599 36.4065 38.0299 46.6738 24.9997 46.6738C11.989 46.6738 1.36722 36.4314 0.760969 23.5702C0.727766 22.8671 0.688996 22.4048 1.60804 22.4048H48.3913C48.9589 22.4048 49.2661 22.7149 49.2524 23.2823Z" fill="#98E5FA"/>
        <path fill-rule="evenodd" clip-rule="evenodd" d="M49.2529 23.2823C49.2501 23.3543 49.2474 23.4484 49.2445 23.5204C48.6604 36.4064 38.0305 46.6737 25.0003 46.6737C24.6044 46.6737 24.2086 46.6627 23.8154 46.6433C36.3002 46.0454 46.3103 36.0133 46.875 23.5205C46.8777 23.4485 46.8806 23.3544 46.8833 23.2824C46.8972 22.7149 46.5898 22.4048 46.0224 22.4048H48.392C48.9595 22.4047 49.2667 22.7148 49.2529 23.2823Z" fill="#8BDEF5"/>
        <path fill-rule="evenodd" clip-rule="evenodd" d="M17.2271 31.2409C17.2271 29.0789 15.4555 27.3073 13.2935 27.3073H1.22949C2.47246 33.3669 5.97148 38.6016 10.8132 42.0951H10.9239C13.0859 42.0951 14.8576 40.3263 14.8576 38.1615C14.8576 37.2867 14.5613 36.4674 14.0714 35.8113C13.7974 35.4432 13.8472 35.1746 14.3371 35.0335C15.998 34.5572 17.2271 33.0347 17.2271 31.2409Z" fill="#B3E59F"/>
        <path fill-rule="evenodd" clip-rule="evenodd" d="M30.3424 30.6236C30.3424 31.2603 30.539 31.8472 30.8628 32.3454C31.2171 32.888 31.1673 32.9627 30.5832 33.1648C29.3457 33.5911 28.46 34.7594 28.46 36.124C28.46 37.8459 29.8662 39.2521 31.5854 39.2521H42.4673C45.5538 36.052 47.7712 32.0077 48.7317 27.4983H33.4704C31.7514 27.4982 30.3424 28.9045 30.3424 30.6236Z" fill="#B3E59F"/>
        <path fill-rule="evenodd" clip-rule="evenodd" d="M16.7363 45.2287C19.3136 46.1643 22.0984 46.6737 24.9995 46.6737C27.8203 46.6737 30.5306 46.1921 33.0496 45.3062C31.2531 43.255 28.255 41.9096 24.8584 41.9096C21.5061 41.9095 18.5384 43.2217 16.7363 45.2287Z" fill="#B3E59F"/>
        <path fill-rule="evenodd" clip-rule="evenodd" d="M10.9232 42.0951C13.0853 42.0951 14.8569 40.3263 14.8569 38.1615C14.8569 37.2867 14.5606 36.4674 14.0707 35.8113C13.7967 35.4432 13.8465 35.1746 14.3364 35.0335C15.9974 34.5574 17.2265 33.0349 17.2265 31.241C17.2265 29.079 15.4548 27.3074 13.2928 27.3074H10.9231C13.0852 27.3074 14.8568 29.0791 14.8568 31.241C14.8568 33.0348 13.6249 34.5573 11.9668 35.0335C11.4768 35.1747 11.4271 35.4432 11.7011 35.8113C12.191 36.4674 12.4872 37.2868 12.4872 38.1615C12.4872 39.709 11.5819 41.0543 10.2754 41.6965C10.4526 41.8321 10.6325 41.9649 10.8125 42.0951H10.9232Z" fill="#95D6A4"/>
        <path fill-rule="evenodd" clip-rule="evenodd" d="M48.7317 27.4982H46.3622C45.4015 32.0076 43.1842 36.052 40.0977 39.252H42.4673C45.5538 36.052 47.7712 32.0077 48.7317 27.4982Z" fill="#95D6A4"/>
        <path fill-rule="evenodd" clip-rule="evenodd" d="M44.3384 16.6331C46.9019 16.6331 48.9808 14.5569 48.9808 11.9908C48.9808 10.2745 48.0451 8.77422 46.6583 7.97139C46.6583 5.40801 44.5792 3.3291 42.0159 3.3291C41.6062 3.3291 41.2104 3.38174 40.8311 3.48135C42.8214 4.00449 44.2885 5.81494 44.2885 7.97139C45.6754 8.77412 46.6084 10.2745 46.6084 11.9908C46.6084 14.1473 45.1412 15.9577 43.1536 16.4809C43.5301 16.5805 43.9287 16.6331 44.3384 16.6331Z" fill="#78C2A4"/>
        <path fill-rule="evenodd" clip-rule="evenodd" d="M27.3229 16.6331C29.8862 16.6331 31.9651 14.5569 31.9651 11.9908C31.9651 10.2745 31.0295 8.77422 29.6427 7.97139C29.6427 5.40801 27.5637 3.3291 25.0003 3.3291C24.5906 3.3291 24.1947 3.38174 23.8154 3.48135C25.8059 4.00449 27.2729 5.81494 27.2729 7.97139C28.6598 8.77412 29.5955 10.2745 29.5955 11.9908C29.5955 14.1473 28.1283 15.9577 26.138 16.4809C26.5145 16.5805 26.9132 16.6331 27.3229 16.6331Z" fill="#78C2A4"/>
        <path fill-rule="evenodd" clip-rule="evenodd" d="M10.3061 16.6331C12.8695 16.6331 14.9485 14.5569 14.9485 11.9908C14.9485 10.2745 14.0156 8.77422 12.626 7.97139C12.626 5.40801 10.5497 3.3291 7.98359 3.3291C7.57392 3.3291 7.17803 3.38174 6.79883 3.48135C8.78916 4.00449 10.2563 5.81494 10.2563 7.97139C11.6433 8.77412 12.5789 10.2745 12.5789 11.9908C12.5789 14.1473 11.1118 15.9577 9.12138 16.4809C9.49785 16.5805 9.89648 16.6331 10.3061 16.6331Z" fill="#78C2A4"/>
        <path d="M18.179 23.1384C17.7748 23.1384 17.4482 22.809 17.4482 22.4048C17.4482 22.0006 17.7749 21.674 18.179 21.674H24.2691V17.1259C23.7542 17.2864 23.2173 17.3667 22.6802 17.3667C21.1964 17.3667 19.851 16.766 18.8793 15.7916C17.9049 14.8199 17.3042 13.4746 17.3042 11.9908C17.3042 11.0192 17.5672 10.1029 18.0239 9.31122C18.4281 8.61356 18.9818 8.01288 19.6406 7.55897C19.7154 6.58456 20.0531 5.67939 20.579 4.91532C21.1991 4.02401 22.0795 3.32636 23.1093 2.93886C23.4885 2.79774 23.9093 2.98866 24.0505 3.36513C24.1944 3.74442 24.0034 4.16513 23.6242 4.30634C22.874 4.5914 22.2317 5.09804 21.7806 5.74579C21.346 6.37694 21.0912 7.14101 21.0912 7.97147H21.0885C21.0885 8.22333 20.9583 8.46698 20.723 8.60263C20.1279 8.94862 19.6296 9.44413 19.2892 10.0366C18.9569 10.6097 18.7687 11.2767 18.7687 11.9909C18.7687 13.0705 19.2061 14.0505 19.9147 14.7563C20.6234 15.465 21.6006 15.9023 22.6803 15.9023C23.2283 15.9023 23.7653 15.7889 24.2692 15.5674V14.0338L21.6699 11.4372C21.3848 11.1493 21.3848 10.687 21.6699 10.4018C21.9578 10.114 22.4201 10.114 22.7053 10.4018L24.2693 11.9631V8.08485C24.2693 7.68065 24.596 7.35126 25.0001 7.35126C25.4042 7.35126 25.7337 7.68065 25.7337 8.08485V11.9631L27.2949 10.4018C27.5801 10.114 28.0452 10.114 28.3303 10.4018C28.6154 10.687 28.6154 11.1492 28.3303 11.4372L25.7337 14.0338V15.5674C26.2348 15.7889 26.7718 15.9023 27.3228 15.9023C28.4023 15.9023 29.3795 15.4649 30.0855 14.7563C30.7941 14.0504 31.2314 13.0705 31.2314 11.9909C31.2314 11.2767 31.0433 10.6096 30.7138 10.0366C30.3788 9.458 29.8972 8.97089 29.3186 8.62753C29.0776 8.50849 28.9116 8.25937 28.9116 7.97147C28.9116 7.14101 28.6541 6.37694 28.2195 5.74579C27.7711 5.09804 27.1289 4.5914 26.3759 4.30634C25.9995 4.16513 25.8084 3.74442 25.9496 3.36513C26.0907 2.98866 26.5144 2.79765 26.8908 2.93886C27.9233 3.32646 28.8037 4.02401 29.4211 4.91532C29.9498 5.67939 30.2848 6.58456 30.3595 7.55897C31.021 8.01298 31.5747 8.61366 31.9788 9.31122C32.4356 10.1029 32.6958 11.0192 32.6958 11.9908C32.6958 13.4746 32.0952 14.8199 31.1234 15.7916C30.149 16.766 28.8063 17.3667 27.3227 17.3667C26.7828 17.3667 26.2458 17.2864 25.7336 17.1259V21.674H41.2829V17.1259C40.7708 17.2864 40.2337 17.3667 39.6967 17.3667C38.2102 17.3667 36.8675 16.766 35.8958 15.7916C34.9214 14.8199 34.3207 13.4746 34.3207 11.9908C34.3207 11.0192 34.5837 10.1029 35.0404 9.31122C35.4418 8.61356 35.9982 8.01288 36.6571 7.55897C36.7568 6.23856 37.3353 5.05097 38.2157 4.17069C39.1901 3.19628 40.5327 2.5956 42.0165 2.5956C43.5002 2.5956 44.8456 3.19628 45.8173 4.17069C46.7004 5.05097 47.2761 6.23856 47.3758 7.55897C48.0347 8.01298 48.591 8.61366 48.9925 9.31122C49.4521 10.1029 49.7122 11.0192 49.7122 11.9908C49.7122 13.4746 49.1115 14.8199 48.1371 15.7916C47.1654 16.766 45.8229 17.3667 44.339 17.3667C43.7992 17.3667 43.2622 17.2864 42.75 17.1259V21.674H49.2692C49.6734 21.674 50 22.0007 50 22.4048C50 36.016 38.9962 47.4045 25 47.4045C18.3258 47.4045 12.0031 44.7636 7.32207 40.0826C2.59941 35.36 0 29.0319 0 22.4048C0 22.0006 0.329492 21.674 0.733594 21.674H7.25283V17.1259C6.73799 17.2864 6.20088 17.3667 5.66387 17.3667C4.18018 17.3667 2.83477 16.766 1.86299 15.7916C0.891406 14.8199 0.287891 13.4746 0.287891 11.9908C0.287891 11.0192 0.550879 10.1029 1.00762 9.31122C1.41182 8.61356 1.96543 8.01288 2.62432 7.55897C2.72402 6.23856 3.30254 5.05097 4.18291 4.17069C5.15732 3.19628 6.4999 2.5956 7.98369 2.5956C9.46748 2.5956 10.8129 3.19628 11.7845 4.17069C12.6676 5.05097 13.2434 6.23856 13.343 7.55897C14.0046 8.01298 14.5582 8.61366 14.9624 9.31122C15.4191 10.1029 15.6794 11.0192 15.6794 11.9908C15.6794 13.4746 15.0787 14.8199 14.107 15.7916C13.1325 16.766 11.7899 17.3667 10.3063 17.3667C9.76924 17.3667 9.23213 17.2864 8.71729 17.1259V21.674H14.8628C15.267 21.674 15.5936 22.0007 15.5936 22.4048C15.5936 22.809 15.2669 23.1384 14.8628 23.1384H1.47549C1.51152 24.3065 1.6333 25.4554 1.83262 26.5766H13.2932C14.5775 26.5766 15.7431 27.0997 16.5873 27.9468C17.4344 28.7911 17.9576 29.9565 17.9576 31.2409C17.9576 32.4839 17.4648 33.6188 16.6621 34.4603C16.161 34.9835 15.541 35.3932 14.8434 35.6396C14.9596 35.8224 15.0676 36.0134 15.1589 36.2127C15.4357 36.8106 15.588 37.4694 15.588 38.1615C15.588 39.4847 15.0593 40.6418 14.2011 41.4778C13.7692 41.8958 13.2544 42.2335 12.6869 42.4661C13.9021 43.2135 15.1922 43.853 16.5402 44.3734C17.2987 43.6177 18.215 42.9699 19.2477 42.4551C20.4048 41.882 21.7086 41.4807 23.1094 41.2951C23.508 41.2426 23.8762 41.5249 23.926 41.9235C23.9785 42.3249 23.6961 42.6903 23.2975 42.743C22.0657 42.9062 20.9141 43.2606 19.8953 43.7672C19.2421 44.091 18.644 44.4786 18.1153 44.916C20.2912 45.5831 22.6055 45.9402 25 45.9402C27.3197 45.9402 29.5621 45.6053 31.677 44.9797C31.1456 44.5257 30.5365 44.1243 29.8666 43.7893C28.8367 43.2717 27.6713 42.9091 26.4201 42.743C26.0187 42.6903 25.7363 42.325 25.789 41.9235C25.8415 41.5249 26.2069 41.2426 26.6083 41.2951C28.0284 41.4834 29.3545 41.8958 30.5255 42.4827C31.569 43.0087 32.4908 43.6758 33.2522 44.4537C35.9981 43.4239 38.5008 41.8986 40.6488 39.9858H31.5856C30.5255 39.9858 29.5593 39.5512 28.8588 38.8509C28.1613 38.1533 27.7266 37.1872 27.7266 36.1242C27.7266 35.1 28.1362 34.1588 28.7979 33.464C29.1717 33.0736 29.6258 32.7608 30.1323 32.5532C29.7918 31.9691 29.6119 31.302 29.6119 30.6238C29.6119 29.5636 30.0438 28.5974 30.744 27.8972C31.4444 27.1996 32.4078 26.7649 33.4708 26.7649H37.5484C37.9526 26.7649 38.2793 27.0944 38.2793 27.4985C38.2793 27.9027 37.9525 28.2294 37.5484 28.2294H33.4708C32.812 28.2294 32.2141 28.5007 31.7795 28.9352C31.3448 29.3671 31.0764 29.9678 31.0764 30.6239C31.0764 30.9838 31.1538 31.3215 31.295 31.6232C31.4417 31.9416 31.6549 32.2212 31.9206 32.4454C32.2251 32.7084 32.261 33.1707 31.9981 33.4752C31.8597 33.6413 31.6632 33.7271 31.4639 33.7326C30.8327 33.7631 30.268 34.0427 29.8583 34.4717C29.4458 34.9035 29.191 35.4876 29.191 36.1243C29.191 36.7832 29.4624 37.381 29.8971 37.8157C30.3317 38.2503 30.9296 38.5188 31.5857 38.5188H42.1549C44.8345 35.6676 46.8139 32.1436 47.8105 28.2295H40.8648C40.4606 28.2295 40.1341 27.9028 40.1341 27.4986C40.1341 27.0945 40.4607 26.765 40.8648 26.765H48.1315C48.353 25.5857 48.4858 24.3733 48.5246 23.1387H18.179V23.1384ZM44.3112 10.4018C44.5963 10.114 45.0614 10.114 45.3466 10.4018C45.6316 10.687 45.6316 11.1492 45.3466 11.4372L42.75 14.0338V15.5674C42.9327 15.6476 43.1236 15.7169 43.323 15.7694C43.644 15.8553 43.9846 15.9023 44.3389 15.9023C45.4186 15.9023 46.3957 15.4649 47.1017 14.7563C47.8104 14.0504 48.2477 13.0705 48.2477 11.9909C48.2477 11.2767 48.0594 10.6096 47.73 10.0366C47.395 9.458 46.9134 8.97089 46.3348 8.62753C46.0912 8.50849 45.9251 8.25937 45.9251 7.97147C45.9251 6.89188 45.4877 5.91464 44.7817 5.20605C44.073 4.49735 43.0959 4.06005 42.0164 4.06005C40.9367 4.06005 39.9597 4.49745 39.251 5.20605C38.5451 5.91474 38.1077 6.89188 38.1077 7.97147H38.105C38.105 8.22333 37.9748 8.46698 37.7396 8.60263C37.1442 8.94862 36.6461 9.44413 36.3056 10.0366C35.9734 10.6097 35.7852 11.2767 35.7852 11.9909C35.7852 13.0705 36.2225 14.0505 36.9312 14.7563C37.6371 15.465 38.6172 15.9023 39.6967 15.9023C40.0483 15.9023 40.3888 15.8553 40.7099 15.7694C40.9092 15.7169 41.1002 15.6476 41.2829 15.5674V14.0338L38.6862 11.4372C38.4012 11.1493 38.4012 10.687 38.6862 10.4018C38.9741 10.114 39.4365 10.114 39.7215 10.4018L41.2828 11.9631V8.08485C41.2828 7.68065 41.6122 7.35126 42.0164 7.35126C42.4206 7.35126 42.75 7.68065 42.75 8.08485V11.9631L44.3112 10.4018ZM10.2785 10.4018C10.5637 10.114 11.0288 10.114 11.3139 10.4018C11.6018 10.687 11.6018 11.1492 11.3139 11.4372L8.71729 14.0338V15.5674C8.9 15.6476 9.09375 15.7169 9.29307 15.7694C9.61143 15.8553 9.95186 15.9023 10.3063 15.9023C11.3859 15.9023 12.3631 15.4649 13.0717 14.7563C13.7776 14.0504 14.215 13.0705 14.215 11.9909C14.215 11.2767 14.0268 10.6096 13.6974 10.0366C13.3624 9.458 12.8808 8.97089 12.3021 8.62753C12.0613 8.50849 11.8952 8.25937 11.8952 7.97147C11.8952 6.89188 11.4578 5.91464 10.7492 5.20605C10.0433 4.49735 9.06338 4.06005 7.98379 4.06005C6.9042 4.06005 5.92695 4.49745 5.22109 5.20605C4.5124 5.91474 4.075 6.89188 4.075 7.97147H4.07227C4.07227 8.22333 3.94219 8.46698 3.70967 8.60263C3.11172 8.94862 2.61621 9.44413 2.27295 10.0366C1.94355 10.6097 1.75244 11.2767 1.75244 11.9909C1.75244 13.0705 2.19268 14.0505 2.89854 14.7563C3.60723 15.465 4.58437 15.9023 5.66396 15.9023C6.01553 15.9023 6.35605 15.8553 6.67715 15.7694C6.87646 15.7169 7.06748 15.6476 7.25293 15.5674V14.0338L4.65352 11.4372C4.36836 11.1493 4.36836 10.687 4.65352 10.4018C4.94141 10.114 5.40371 10.114 5.6916 10.4018L7.25293 11.9631V8.08485C7.25293 7.68065 7.57959 7.35126 7.98369 7.35126C8.38789 7.35126 8.71729 7.68065 8.71729 8.08485V11.9631L10.2785 10.4018ZM2.14541 28.0409C3.18633 32.2763 5.37314 36.0604 8.35732 39.0474C9.19336 39.8834 10.0902 40.6529 11.0426 41.356C11.8813 41.3034 12.6315 40.9657 13.1824 40.4287C13.7638 39.864 14.1236 39.0723 14.1236 38.1615C14.1236 37.6826 14.0185 37.2314 13.8302 36.8272C13.6336 36.401 13.3485 36.0272 12.997 35.7255C12.6897 35.4653 12.6537 35.003 12.9167 34.6957C13.0551 34.5324 13.2517 34.4466 13.451 34.4411C14.2952 34.3996 15.0538 34.0259 15.6047 33.4528C16.1556 32.877 16.4934 32.0936 16.4934 31.2411C16.4934 30.3636 16.1334 29.5608 15.5521 28.9822C14.9736 28.4009 14.1708 28.041 13.2933 28.041H2.14541V28.0409Z" fill="#2D3142" fill-opacity="0.8"/>
    </g>
    <defs>
        <clipPath id="clip0">
            <rect width="50" height="50" fill="white"/>
        </clipPath>
    </defs>
</svg>
